<svg xmlns="http://www.w3.org/2000/svg" viewBox="0 0 566.2 96.3"><defs><linearGradient id="a" x1="-248.9" y1="462.1" x2="-248.9" y2="446.3" gradientTransform="matrix(1.33 0 0 1.33 772.9 -536.2)" gradientUnits="userSpaceOnUse"><stop offset="0" stop-opacity="0"/><stop offset=".3" stop-opacity=".3"/><stop offset=".7" stop-opacity=".7"/><stop offset="1" stop-opacity=".9"/></linearGradient></defs><path d="M152.6 0v51c0 17.4-6.4 25.9-19.4 25.9-17.6 0-19.5-18.1-19.5-25.9V0H94.3v51c0 27.5 15.2 45.3 38.9 45.3S172 79.3 172 51V0h-19.4Z" style="fill:#4a9af1;stroke-width:0"/><path d="m246.2 28.5 21-28.4v95.7h-21.3V60.2l-26.3 35.6-26.2-35.6v35.6h-21.3V.1l21 28.4 26.5 36.1 26.6-36ZM392.3 96h-26l-26.4-48.2L313.5 96h-27.6l41.2-74.2 12-21.6 12.8 23L392.3 96ZM431.3.3h21.2v96h-21.2V.3Z" style="fill:#f9f9f9;stroke-width:0"/><path d="M431.3 57.5h21.2v38.3h-21.2V57.5Z" style="fill:url(#a);isolation:isolate;opacity:.55;stroke-width:0"/><path d="M393.9 39h96v18.5h-96V39ZM521.6 77.4h24.6l20 18.4h-65.9V.1h65.9l-20 18.4h-24.6V39h21.2v18.5h-21.2v20Z" style="fill:#f9f9f9;stroke-width:0"/><path d="m79.5 50.4-.3-.4c-4.1-4.5-7.3-8.1-7.3-13.4 0-5.9 4-16.5 12-31.8l.9-1.7L86.1.3 61.2.1l-.5 1c-8.5 15.3-43.3 72.6-59 74.6l-1.7.2v20.3h2c13.7 0 30.6-15.7 53.2-49.2 2.5 7 7.1 12 10.7 16 3.6 3.9 5.8 6.4 5.8 8.5 0 5.7-7.7 6.3-11 6.3-9.9 0-16-6-16.7-6.7l-1.5-1.5-12.9 15.1L31 86c4.3 4.4 10.2 10.3 29.8 10.3s29.5-12.5 29.5-24.8c0-9.6-6-16-10.7-21Z" style="fill:#4a9af1;stroke-width:0"/></svg>